<svg xmlns="http://www.w3.org/2000/svg" viewBox="0 0 24 24" fill="none">
  <!-- KakaoTalk bubble (개인 프로필) -->
  <path d="M12 2.5C6.201 2.5 1.5 6.36 1.5 11.1c0 3.042 1.866 5.716 4.681 7.28-.182.66-.66 2.394-.754 2.764a.3.3 0 0 0 .437.33c.412-.245 3.23-2.18 4.024-2.72.678.089 1.38.136 2.112.136 5.799 0 10.5-3.86 10.5-8.59C22.5 6.36 17.799 2.5 12 2.5z" fill="#FEE500"/>
  <!-- Person head -->
  <circle cx="12" cy="8.5" r="2.2" fill="#3A1D1D"/>
  <!-- Person shoulders -->
  <path d="M6.5 14.5C6.5 12 9 10.5 12 10.5s5.5 1.5 5.5 4" stroke="#3A1D1D" stroke-width="1.6" stroke-linecap="round" fill="none"/>
</svg>
